<?xml version="1.0" standalone="no"?>
<!DOCTYPE svg PUBLIC "-//W3C//DTD SVG 20010904//EN"
 "http://www.w3.org/TR/2001/REC-SVG-20010904/DTD/svg10.dtd">
<svg version="1.0" xmlns="http://www.w3.org/2000/svg"
 width="316.000000pt" height="316.000000pt" viewBox="0 0 316.000000 316.000000"
 preserveAspectRatio="xMidYMid meet">
<metadata>
Created by potrace 1.14, written by Peter Selinger 2001-2017
</metadata>
<g transform="translate(0.000000,316.000000) scale(0.100000,-0.100000)"
fill="#000000" stroke="none">
<path d="M2330 2091 c0 -5 6 -11 13 -14 6 -2 8 -8 4 -13 -4 -4 -17 -3 -27 4
-11 7 -34 12 -52 12 -39 0 -138 -22 -138 -31 0 -3 19 -12 43 -19 23 -7 46 -17
52 -22 5 -4 19 -8 31 -8 13 0 26 -4 29 -10 3 -5 17 -10 30 -10 13 0 27 -4 30
-10 12 -19 -45 -11 -130 20 -121 44 -157 46 -250 15 -73 -24 -107 -36 -143
-54 -21 -10 -15 -26 10 -29 13 -1 46 -6 73 -11 28 -6 75 -14 105 -20 30 -5 80
-14 110 -20 137 -25 170 -33 170 -43 0 -11 -47 -8 -180 12 -41 6 -104 16 -140
21 -36 5 -94 14 -130 20 -152 23 -134 26 -265 -41 -66 -34 -132 -71 -146 -81
-15 -10 -30 -19 -34 -19 -13 0 -95 -61 -95 -70 0 -6 102 -10 261 -10 267 0
290 -4 213 -36 -26 -11 -105 -16 -307 -20 -314 -7 -282 2 -437 -124 -199 -161
-355 -335 -443 -493 -26 -46 -23 -56 11 -38 9 6 46 17 82 26 36 9 98 25 138
36 127 34 220 58 300 80 141 38 133 39 103 -13 -10 -18 -22 -43 -26 -55 -9
-31 6 -30 118 7 190 62 455 148 527 171 41 13 78 28 82 33 3 5 9 30 13 54 14
97 83 204 204 318 49 47 61 53 99 54 23 0 42 -2 42 -5 0 -2 -23 -28 -51 -57
-64 -68 -121 -180 -127 -254 l-5 -55 29 7 c42 9 174 53 195 64 14 8 16 16 9
39 -19 66 35 193 120 281 80 83 136 123 250 175 76 35 83 39 81 50 -2 6 -84
52 -183 103 -146 74 -189 92 -224 92 -24 0 -44 -4 -44 -9z m70 -41 c0 -5 -6
-10 -14 -10 -8 0 -18 5 -21 10 -3 6 3 10 14 10 12 0 21 -4 21 -10z m40 -20 c0
-5 -4 -10 -9 -10 -6 0 -13 5 -16 10 -3 6 1 10 9 10 9 0 16 -4 16 -10z m40 -20
c0 -5 -2 -10 -4 -10 -3 0 -8 5 -11 10 -3 6 -1 10 4 10 6 0 11 -4 11 -10z m200
-99 c0 -11 -182 -101 -204 -101 -39 0 -10 29 67 67 78 38 137 53 137 34z"/>
</g>
</svg>
